<svg xmlns="http://www.w3.org/2000/svg" viewBox="0 0 512 512" width="512" height="512">
  <defs>
    <radialGradient id="bg" cx="50%" cy="30%" r="80%">
      <stop offset="0" stop-color="#262c3a"/>
      <stop offset="1" stop-color="#11141b"/>
    </radialGradient>
    <linearGradient id="rim" x1="0" y1="0" x2="0" y2="1">
      <stop offset="0" stop-color="#ffffff" stop-opacity=".14"/>
      <stop offset="1" stop-color="#ffffff" stop-opacity="0"/>
    </linearGradient>
    <linearGradient id="white" x1="0" y1="0" x2="1" y2="0">
      <stop offset="0" stop-color="#cfd6e4"/>
      <stop offset="1" stop-color="#ffffff"/>
    </linearGradient>
    <linearGradient id="orange" x1="1" y1="0" x2="0" y2="0">
      <stop offset="0" stop-color="#ff8a4c"/>
      <stop offset="1" stop-color="#ff4f2e"/>
    </linearGradient>
    <filter id="glow" x="-30%" y="-30%" width="160%" height="160%">
      <feGaussianBlur stdDeviation="14"/>
    </filter>
  </defs>
  <rect width="512" height="512" rx="116" fill="url(#bg)"/><rect x="1.5" y="1.5" width="509" height="509" rx="114.5" fill="none" stroke="url(#rim)" stroke-width="3"/>
  <g transform="translate(256 256) scale(1.0) translate(-256 -256)">
    <circle cx="256" cy="256" r="150" fill="none" stroke="#ff5a36" stroke-opacity=".16" stroke-width="44" filter="url(#glow)"/>
    <g stroke="url(#white)" fill="url(#white)"><path d="M124.4 208.1 A140 140 0 0 1 368.6 173.4" fill="none" stroke-width="40" stroke-linecap="round"/><path d="M398 220 L402.5 141.5 L330.1 198.1 Z" stroke-width="10" stroke-linejoin="round"/></g>
    <g stroke="url(#orange)" fill="url(#orange)" transform="rotate(180 256 256)"><path d="M124.4 208.1 A140 140 0 0 1 368.6 173.4" fill="none" stroke-width="40" stroke-linecap="round"/><path d="M398 220 L402.5 141.5 L330.1 198.1 Z" stroke-width="10" stroke-linejoin="round"/></g>
    <path d="M178 256 h30 l18 -46 l30 92 l20 -60 l12 14 h46" fill="none" stroke="#ffffff" stroke-opacity=".92"
          stroke-width="18" stroke-linecap="round" stroke-linejoin="round"/>
  </g>
</svg>
